HIERARCHY
ROOT Hips
{
	OFFSET 0.000000 0.000000 0.000000 
	CHANNELS 6 Xposition Yposition Zposition Yrotation Zrotation Xrotation 
	JOINT Lumbar
	{
		OFFSET 0.000000 0.000000 0.000000 
		CHANNELS 3 Zrotation Xrotation Yrotation
		JOINT Neck
		{
			OFFSET 0.000000 0.445665 0.000000 
			CHANNELS 3 Zrotation Xrotation Yrotation
			End Site
			{
				OFFSET 0.000000 0.227535 0.000000 
			}
		}
		JOINT RightShoulder
		{
			OFFSET 0.019635 0.377685 0.194865 
			CHANNELS 3 Zrotation Xrotation Yrotation
			JOINT RightElbow
			{
				OFFSET 0.000000 -0.243375 0.000000 
				CHANNELS 2 Zrotation Yrotation
				JOINT RightWrist
				{
					OFFSET 0.000000 -0.264825 0.000000 
					CHANNELS 2 Zrotation Xrotation
					End Site
					{
						OFFSET 0.006600 -0.176220 0.000990 
					}
				}
			}
		}
		JOINT LeftShoulder
		{
			OFFSET 0.019635 0.377685 -0.194865 
			CHANNELS 3 Zrotation Xrotation Yrotation
			JOINT LeftElbow
			{
				OFFSET 0.000000 -0.243375 0.000000 
				CHANNELS 2 Zrotation Yrotation
				JOINT LeftWrist
				{
					OFFSET 0.000000 -0.264825 0.000000 
					CHANNELS 2 Zrotation Xrotation
					End Site
					{
						OFFSET 0.006600 -0.176220 -0.000990 
					}
				}
			}
		}
	}
	JOINT RightHip
	{
		OFFSET 0.052140 -0.069960 0.075570 
		CHANNELS 3 Zrotation Xrotation Yrotation
		JOINT RightKnee
		{
			OFFSET 0.000000 -0.402270 0.000000 
			CHANNELS 1 Zrotation
			JOINT RightAnkle
			{
				OFFSET 0.000000 -0.404085 0.000000 
				CHANNELS 3 Zrotation Xrotation Yrotation
				End Site
				{
					OFFSET 0.204105 -0.089430 0.008415 
				}
			}
		}
	}
	JOINT LeftHip
	{
		OFFSET 0.052140 -0.069960 -0.075570 
		CHANNELS 3 Zrotation Xrotation Yrotation
		JOINT LeftKnee
		{
			OFFSET 0.000000 -0.402270 0.000000 
			CHANNELS 1 Zrotation
			JOINT LeftAnkle
			{
				OFFSET 0.000000 -0.404085 0.000000 
				CHANNELS 3 Zrotation Xrotation Yrotation
				End Site
				{
					OFFSET 0.204105 -0.089430 -0.008415 
				}
			}
		}
	}
}
MOTION
Frames: 17
Frame Time: 0.02
0 0.95578 0 173.59068 0 -4.1731 5.06718 5.47232 0.81653 -37.93085 2.30454 4.09616 29.9018 -73.73278 -72.65146 23.81596 88.37439 -38.02739 -4.42016 47.08458 63.23655 56.11885 19.90561 -114.83699 -54.2176 6.63451 -1.27201 7.78113 -4.16998 -8.04126 0.97329 -4.9055 -10.16549 -1.33292 2.93288 6.17662 -6.67865 5.24477 6.50193 11.00393
-3e-05 0.95579 -6e-05 173.68652 0 -4.16183 5.04082 5.4765 0.86788 -37.77648 2.19385 4.00095 29.92176 -73.59513 -72.28375 23.83962 87.79891 -37.79367 -4.39 47.45894 63.40861 55.39706 19.72758 -115.72523 -54.42426 6.74091 -1.27397 7.77557 -4.21253 -8.05655 0.98246 -4.91609 -10.19225 -1.32607 2.92762 6.10793 -6.67316 5.23718 6.47742 10.97157
-5e-05 0.95579 -0.00011 173.78223 0 -4.15059 5.01449 5.48048 0.91887 -37.62245 2.08393 3.90631 29.94317 -73.45818 -71.91653 23.86305 87.22666 -37.56112 -4.35984 47.83102 63.57947 54.67939 19.55092 -116.6063 -54.62902 6.84646 -1.27596 7.77003 -4.25515 -8.07176 0.99169 -4.92667 -10.21901 -1.31917 2.92238 6.0391 -6.66781 5.22963 6.45305 10.93957
-8e-05 0.9558 -0.00017 173.8782 0 -4.13928 4.98813 5.48376 0.96886 -37.46845 1.97594 3.81286 29.97075 -73.32237 -71.54787 23.88592 86.66098 -37.33096 -4.32931 48.19828 63.74747 53.97125 19.37804 -117.46663 -54.82947 6.94945 -1.27796 7.76445 -4.29819 -8.08703 1.00157 -4.93735 -10.24662 -1.31186 2.91707 5.96894 -6.66316 5.22218 6.42912 10.90896
-0.00011 0.9558 -0.00023 173.9726 0 -4.12825 4.96208 5.4908 1.02406 -37.31451 1.8576 3.7129 29.96589 -73.18016 -71.18705 23.91191 86.05961 -37.08812 -4.30069 48.59183 63.93097 53.21273 19.18514 -118.436 -55.05432 7.06579 -1.27975 7.759 -4.33867 -8.10227 1.00837 -4.94758 -10.27043 -1.30656 2.91204 5.90566 -6.65506 5.21421 6.40298 10.87133
-0.00014 0.9558 -0.00029 174.07036 0 -4.11666 4.93529 5.48986 1.06825 -37.16047 1.76136 3.62696 30.02949 -73.05188 -70.80986 23.9312 85.53494 -36.87233 -4.2681 48.92888 64.08124 52.56144 19.03478 -119.17435 -55.22628 7.1539 -1.28211 7.75332 -4.38477 -8.11735 1.02145 -4.9587 -10.30177 -1.29713 2.90648 5.828 -6.65406 5.20732 6.38149 10.84831
-0.00016 0.95579 -0.00038 174.1792 0 -4.10293 4.90653 5.46625 1.08162 -37.00298 1.72486 3.57747 30.29222 -72.95784 -70.37674 23.93252 85.21005 -36.72804 -4.2228 49.11757 64.14273 52.20036 19.00204 -119.26587 -55.25991 7.16265 -1.28501 7.74655 -4.44592 -8.13406 1.05467 -4.97296 -10.35993 -1.27461 2.89882 5.70605 -6.67502 5.20348 6.37311 10.86891
-0.00019 0.95577 -0.00047 174.29118 0 -4.08872 4.87697 5.43469 1.08398 -36.8459 1.71084 3.54249 30.62246 -72.87854 -69.92877 23.927 84.96435 -36.61148 -4.17377 49.24798 64.1702 51.94857 19.01215 -119.12526 -55.23829 7.14311 -1.28867 7.73963 -4.51281 -8.15023 1.09377 -4.988 -10.42477 -1.24819 2.89072 5.5703 -6.70275 5.2007 6.36937 10.90372
-0.00022 0.95575 -0.00057 174.40071 0 -4.07508 4.84773 5.40712 1.09169 -36.6904 1.68739 3.50231 30.91565 -72.79515 -69.49379 23.92422 84.68996 -36.48415 -4.12755 49.40034 64.21135 51.64978 19.00254 -119.0975 -55.23759 7.13751 -1.29266 7.73306 -4.57752 -8.16528 1.12839 -5.00224 -10.48256 -1.22462 2.88322 5.44372 -6.72583 5.19739 6.3633 10.92988
-0.00025 0.95574 -0.00066 174.51469 0 -4.05993 4.81874 5.37786 1.09794 -36.52711 1.66077 3.45633 31.23587 -72.70075 -69.03176 23.9229 84.38523 -36.34911 -4.07667 49.57192 64.25994 51.33843 18.99405 -119.04125 -55.25659 7.12759 -1.29385 7.7253 -4.64073 -8.18604 1.17059 -5.01837 -10.55682 -1.19652 2.87404 5.30494 -6.75548 5.19428 6.35813 10.96513
-0.00029 0.95572 -0.00075 174.61997 0 -4.04784 4.78897 5.35034 1.1046 -36.38058 1.64593 3.42579 31.51561 -72.63277 -68.62349 23.91702 84.16198 -36.23669 -4.03455 49.68949 64.28504 51.0809 18.9933 -118.98594 -55.21892 7.11964 -1.30099 7.71998 -4.70805 -8.19487 1.19847 -5.03074 -10.59895 -1.17692 2.86825 5.18828 -6.77312 5.19099 6.35223 10.98502
-0.00036 0.95572 -0.00083 174.7019 0 -4.04414 4.75785 5.32872 1.11507 -36.27632 1.65927 3.43496 31.66883 -72.63409 -68.35911 23.89943 84.14819 -36.18003 -4.01795 49.67385 64.25293 50.93084 19.00407 -119.01863 -55.05962 7.12665 -1.32484 7.72134 -4.78854 -8.1702 1.18482 -5.03262 -10.5456 -1.18189 2.87206 5.13606 -6.75532 5.18698 6.3428 10.95733
-0.00046 0.95571 -0.00091 174.7747 0 -4.04358 4.72589 5.30927 1.12632 -36.18966 1.68345 3.45902 31.77861 -72.66146 -68.15091 23.87767 84.21263 -36.14506 -4.01023 49.60577 64.19853 50.83412 19.02078 -119.05536 -54.84118 7.13619 -1.3546 7.72518 -4.87241 -8.13365 1.15668 -5.03067 -10.46057 -1.19553 2.87927 5.10658 -6.7253 5.18272 6.33256 10.91398
-0.00054 0.95571 -0.00098 174.85074 0 -4.04172 4.69392 5.28939 1.13722 -36.09741 1.70189 3.47586 31.90717 -72.67695 -67.92227 23.85835 84.23908 -36.10025 -3.99819 49.56031 64.15472 50.72206 19.03464 -119.07098 -54.63588 7.1428 -1.38134 7.72795 -4.95256 -8.10302 1.13556 -5.03044 -10.39347 -1.20508 2.88483 5.06666 -6.70131 5.17854 6.32294 10.87889
-0.00062 0.95571 -0.00107 174.93073 0 -4.03933 4.66349 5.26693 1.14772 -35.99482 1.72457 3.49522 32.04232 -72.69323 -67.67142 23.83643 84.2798 -36.05677 -3.98722 49.51704 64.1076 50.5751 19.05163 -119.15818 -54.48682 7.15572 -1.40943 7.73048 -5.04191 -8.07029 1.11279 -5.03036 -10.31197 -1.21505 2.89084 5.02665 -6.67561 5.17459 6.31242 10.83949
-0.00072 0.95571 -0.00113 175.00025 0 -4.03878 4.62976 5.25044 1.15938 -35.91816 1.74068 3.51254 32.15233 -72.71372 -67.48062 23.8191 84.30685 -36.01474 -3.97619 49.45865 64.06274 50.51349 19.06173 -119.10237 -54.20707 7.15675 -1.4362 7.73407 -5.11307 -8.03901 1.08998 -5.02901 -10.25249 -1.22635 2.89669 4.99248 -6.65041 5.17004 6.30353 10.80512
-0.00083 0.95573 -0.00113 175.04324 0 -4.04274 4.58635 5.25009 1.17427 -35.90694 1.73616 3.52178 32.20503 -72.74052 -67.43989 23.81491 84.28898 -35.97608 -3.96253 49.36176 64.02763 50.66162 19.06195 -118.63228 -53.58322 7.12178 -1.45705 7.74032 -5.13086 -8.0156 1.07018 -5.02537 -10.26466 -1.23851 2.90149 4.96843 -6.6301 5.16417 6.29925 10.78883
